<svg width="71" height="28" viewBox="0 0 71 28" fill="none" xmlns="http://www.w3.org/2000/svg">
<path d="M0.75703 11.3765C-0.763786 13.9798 0.209536 18.0062 1.88678 20.4273C2.75582 21.6422 3.57271 22.7269 4.73722 22.7269H4.80675C5.26546 22.698 5.71414 22.5801 6.12769 22.3798C6.61423 22.1391 7.14901 22.0115 7.69195 22.0066C8.21054 22.0124 8.72127 22.134 9.1867 22.3624C9.62831 22.5871 10.1163 22.706 10.6119 22.7095C11.9242 22.7095 12.7324 21.512 13.4363 20.4707C13.9693 19.6926 14.3878 18.8422 14.679 17.9455C14.691 17.9108 14.6896 17.873 14.6751 17.8393C14.6607 17.8056 14.6342 17.7785 14.6008 17.7632C13.9239 17.4739 13.3472 16.9923 12.9424 16.3782C12.5375 15.7641 12.3225 15.0447 12.3239 14.3095C12.3327 13.6608 12.5053 13.0248 12.8259 12.4605C13.1464 11.8962 13.6045 11.4218 14.1576 11.0814C14.1907 11.0582 14.2152 11.0246 14.2271 10.986C14.2404 10.9495 14.2404 10.9096 14.2271 10.8731C13.85 10.3309 13.351 9.88442 12.77 9.56947C12.189 9.25452 11.5421 9.07987 10.8813 9.05951H10.5945C9.86644 9.10247 9.15297 9.28205 8.49147 9.58885C8.17235 9.73762 7.83244 9.8371 7.48339 9.88389C7.113 9.83331 6.75425 9.71879 6.42316 9.54546C5.84604 9.27921 5.2241 9.12322 4.58949 9.08554C3.8059 9.09969 3.03971 9.31865 2.36727 9.72061C1.69484 10.1226 1.13965 10.6935 0.75703 11.3765Z" fill="#181818"/>
<path d="M10.8548 4.78142C9.80778 4.87719 8.83886 5.37494 8.15208 6.16986C7.80402 6.55292 7.53812 7.00304 7.37074 7.49252C7.20335 7.98201 7.13802 8.50051 7.17875 9.01614C7.18249 9.04938 7.19742 9.08036 7.2211 9.10401C7.24479 9.12766 7.27582 9.14258 7.30911 9.1463H7.5003C7.99714 9.11913 8.48236 8.98576 8.92314 8.75521C9.36392 8.52466 9.74999 8.20231 10.0553 7.80994C10.7465 6.99849 11.0899 5.94792 11.0112 4.88556C11.0013 4.85277 10.9803 4.82444 10.9517 4.80544C10.9232 4.78644 10.8889 4.77795 10.8548 4.78142Z" fill="#181818"/>
<path d="M28.3775 9.18699V10.4772H28.0665V9.47509H24.0048L23.9985 10.4772H23.6875L23.6938 9.18699H23.935C24.2269 9.16194 24.43 8.91977 24.5443 8.46048C24.6627 8.00118 24.7347 7.35818 24.76 6.53145L24.8045 5.09094H27.6921V9.18699H28.3775ZM25.0583 6.5565C25.0329 7.26632 24.9758 7.8467 24.887 8.29764C24.8023 8.74858 24.6564 9.04503 24.4491 9.18699H27.3684V5.37904H25.0964L25.0583 6.5565Z" fill="#181818"/>
<path d="M30.5132 9.50015C30.2001 9.50015 29.9167 9.42917 29.6628 9.2872C29.4132 9.14524 29.2164 8.949 29.0726 8.69847C28.9287 8.44378 28.8568 8.15776 28.8568 7.84043C28.8568 7.5231 28.9287 7.23918 29.0726 6.98865C29.2164 6.73396 29.4132 6.53562 29.6628 6.39366C29.9167 6.2517 30.2001 6.18072 30.5132 6.18072C30.8263 6.18072 31.1077 6.2517 31.3573 6.39366C31.6111 6.53562 31.81 6.73396 31.9538 6.98865C32.0977 7.23918 32.1696 7.5231 32.1696 7.84043C32.1696 8.15776 32.0977 8.44378 31.9538 8.69847C31.81 8.949 31.6111 9.14524 31.3573 9.2872C31.1077 9.42917 30.8263 9.50015 30.5132 9.50015ZM30.5132 9.21831C30.7671 9.21831 30.9934 9.15985 31.1923 9.04294C31.3954 8.92603 31.554 8.76319 31.6683 8.55442C31.7867 8.34565 31.846 8.10766 31.846 7.84043C31.846 7.57321 31.7867 7.33521 31.6683 7.12644C31.554 6.91767 31.3954 6.75483 31.1923 6.63792C30.9934 6.52101 30.7671 6.46256 30.5132 6.46256C30.2594 6.46256 30.0309 6.52101 29.8278 6.63792C29.629 6.75483 29.4703 6.91767 29.3518 7.12644C29.2376 7.33521 29.1805 7.57321 29.1805 7.84043C29.1805 8.10766 29.2376 8.34565 29.3518 8.55442C29.4703 8.76319 29.629 8.92603 29.8278 9.04294C30.0309 9.15985 30.2594 9.21831 30.5132 9.21831Z" fill="#181818"/>
<path d="M34.5421 9.50015C34.2206 9.50015 33.9329 9.42917 33.679 9.2872C33.4252 9.14524 33.2263 8.949 33.0825 8.69847C32.9386 8.44378 32.8667 8.15776 32.8667 7.84043C32.8667 7.51893 32.9386 7.23291 33.0825 6.98239C33.2263 6.72769 33.4252 6.53145 33.679 6.39366C33.9329 6.2517 34.2206 6.18072 34.5421 6.18072C34.8087 6.18072 35.0498 6.23291 35.2656 6.33729C35.4856 6.4375 35.6633 6.58573 35.7987 6.78197L35.5639 6.95108C35.4454 6.78824 35.2973 6.66715 35.1196 6.58782C34.9462 6.50431 34.7537 6.46256 34.5421 6.46256C34.284 6.46256 34.0513 6.52101 33.844 6.63792C33.6409 6.75066 33.4802 6.91141 33.3617 7.12018C33.2475 7.32895 33.1903 7.56903 33.1903 7.84043C33.1903 8.11183 33.2475 8.35192 33.3617 8.56069C33.4802 8.76945 33.6409 8.9323 33.844 9.04921C34.0513 9.16194 34.284 9.21831 34.5421 9.21831C34.7537 9.21831 34.9462 9.17864 35.1196 9.09931C35.2973 9.0158 35.4454 8.89263 35.5639 8.72979L35.7987 8.89889C35.6633 9.09514 35.4856 9.24545 35.2656 9.34983C35.0498 9.45004 34.8087 9.50015 34.5421 9.50015Z" fill="#181818"/>
<path d="M38.8762 6.48761H37.5815V9.47509H37.2642V6.48761H35.9696V6.20577H38.8762V6.48761Z" fill="#181818"/>
<path d="M42.259 6.20577L40.5582 9.91977C40.4313 10.2079 40.2832 10.4125 40.1139 10.5336C39.9489 10.6546 39.7522 10.7152 39.5237 10.7152C39.3714 10.7152 39.2276 10.6901 39.0922 10.64C38.961 10.5899 38.8489 10.5169 38.7558 10.4208L38.9145 10.1828C39.0837 10.354 39.2889 10.4396 39.5301 10.4396C39.6908 10.4396 39.8283 10.3958 39.9426 10.3081C40.0568 10.2204 40.1626 10.0701 40.2599 9.85714L40.4376 9.46257L38.9462 6.20577H39.2826L40.609 9.13063L41.9353 6.20577H42.259Z" fill="#181818"/>
<path d="M45.9202 6.20577V9.47509H45.6029V6.48761H43.3436V9.47509H43.0263V6.20577H45.9202Z" fill="#181818"/>
<path d="M47.2902 6.20577H47.6076V7.69638H49.8542V6.20577H50.1715V9.47509H49.8542V7.97196H47.6076V9.47509H47.2902V6.20577Z" fill="#181818"/>
<path d="M52.8619 9.50015C52.5488 9.50015 52.2653 9.42917 52.0114 9.2872C51.7618 9.14524 51.5651 8.949 51.4212 8.69847C51.2774 8.44378 51.2055 8.15776 51.2055 7.84043C51.2055 7.5231 51.2774 7.23918 51.4212 6.98865C51.5651 6.73396 51.7618 6.53562 52.0114 6.39366C52.2653 6.2517 52.5488 6.18072 52.8619 6.18072C53.1749 6.18072 53.4563 6.2517 53.7059 6.39366C53.9598 6.53562 54.1586 6.73396 54.3025 6.98865C54.4463 7.23918 54.5183 7.5231 54.5183 7.84043C54.5183 8.15776 54.4463 8.44378 54.3025 8.69847C54.1586 8.949 53.9598 9.14524 53.7059 9.2872C53.4563 9.42917 53.1749 9.50015 52.8619 9.50015ZM52.8619 9.21831C53.1157 9.21831 53.3421 9.15985 53.5409 9.04294C53.744 8.92603 53.9027 8.76319 54.0169 8.55442C54.1354 8.34565 54.1946 8.10766 54.1946 7.84043C54.1946 7.57321 54.1354 7.33521 54.0169 7.12644C53.9027 6.91767 53.744 6.75483 53.5409 6.63792C53.3421 6.52101 53.1157 6.46256 52.8619 6.46256C52.608 6.46256 52.3795 6.52101 52.1764 6.63792C51.9776 6.75483 51.8189 6.91767 51.7005 7.12644C51.5862 7.33521 51.5291 7.57321 51.5291 7.84043C51.5291 8.10766 51.5862 8.34565 51.7005 8.55442C51.8189 8.76319 51.9776 8.92603 52.1764 9.04294C52.3795 9.15985 52.608 9.21831 52.8619 9.21831Z" fill="#181818"/>
<path d="M57.1817 6.20577H57.499V7.69638H59.7456V6.20577H60.0629V9.47509H59.7456V7.97196H57.499V9.47509H57.1817V6.20577Z" fill="#181818"/>
<path d="M62.5311 6.18072C62.9415 6.18072 63.2567 6.2851 63.4768 6.49387C63.6968 6.69846 63.8068 7.00118 63.8068 7.40202V9.47509H63.5021V8.89263C63.3964 9.0847 63.2419 9.23501 63.0389 9.34357C62.8358 9.44796 62.5925 9.50015 62.309 9.50015C61.9409 9.50015 61.649 9.41455 61.4332 9.24336C61.2217 9.07217 61.1159 8.8467 61.1159 8.56695C61.1159 8.29555 61.2132 8.07634 61.4078 7.90933C61.6067 7.73814 61.9219 7.65254 62.3534 7.65254H63.4894V7.38949C63.4894 7.08469 63.4048 6.85295 63.2356 6.69429C63.0706 6.53562 62.8273 6.45629 62.5058 6.45629C62.2858 6.45629 62.0742 6.49387 61.8711 6.56903C61.6723 6.64419 61.503 6.74439 61.3634 6.86966L61.2048 6.64419C61.3698 6.49805 61.5686 6.38531 61.8013 6.30598C62.034 6.22247 62.2773 6.18072 62.5311 6.18072ZM62.3534 9.24336C62.6285 9.24336 62.8612 9.18073 63.0516 9.05547C63.2462 8.93021 63.3921 8.74858 63.4894 8.51058V7.8968H62.3598C62.034 7.8968 61.7971 7.95526 61.649 8.07217C61.5051 8.18908 61.4332 8.34983 61.4332 8.55442C61.4332 8.76737 61.5136 8.93647 61.6744 9.06173C61.8352 9.18282 62.0615 9.24336 62.3534 9.24336Z" fill="#181818"/>
<path d="M28.6921 18.7489H25.4616L24.7361 20.7349H23.6875L26.632 13.1253H27.5217L30.4716 20.7349H29.4283L28.6921 18.7489ZM25.7688 17.9231H28.3903L27.0769 14.3639L25.7688 17.9231Z" fill="#181818"/>
<path d="M36.1965 17.9702C36.1965 18.8308 35.997 19.5242 35.598 20.0503C35.1991 20.5764 34.6589 20.8395 33.9775 20.8395C33.2819 20.8395 32.7347 20.6217 32.3357 20.1862V22.9091H31.356V15.08H32.251L32.2987 15.7071C32.6976 15.2193 33.2519 14.9754 33.9616 14.9754C34.6501 14.9754 35.1938 15.2315 35.5927 15.7437C35.9952 16.2559 36.1965 16.9684 36.1965 17.8813V17.9702ZM35.2167 17.8604C35.2167 17.2228 35.079 16.7193 34.8036 16.35C34.5283 15.9806 34.1505 15.796 33.6703 15.796C33.0772 15.796 32.6323 16.0556 32.3357 16.5747V19.2768C32.6288 19.7924 33.0772 20.0503 33.6809 20.0503C34.1505 20.0503 34.523 19.8674 34.7983 19.5015C35.0773 19.1322 35.2167 18.5851 35.2167 17.8604Z" fill="#181818"/>
<path d="M42.2868 17.9702C42.2868 18.8308 42.0873 19.5242 41.6883 20.0503C41.2894 20.5764 40.7492 20.8395 40.0678 20.8395C39.3723 20.8395 38.825 20.6217 38.4261 20.1862V22.9091H37.4463V15.08H38.3413L38.389 15.7071C38.7879 15.2193 39.3422 14.9754 40.0519 14.9754C40.7404 14.9754 41.2841 15.2315 41.683 15.7437C42.0855 16.2559 42.2868 16.9684 42.2868 17.8813V17.9702ZM41.307 17.8604C41.307 17.2228 41.1693 16.7193 40.894 16.35C40.6186 15.9806 40.2408 15.796 39.7606 15.796C39.1675 15.796 38.7226 16.0556 38.4261 16.5747V19.2768C38.7191 19.7924 39.1675 20.0503 39.7712 20.0503C40.2408 20.0503 40.6133 19.8674 40.8887 19.5015C41.1676 19.1322 41.307 18.5851 41.307 17.8604Z" fill="#181818"/>
<path d="M48.6525 17.343C47.7804 17.0956 47.1449 16.7925 46.7459 16.4336C46.3505 16.0712 46.1528 15.6252 46.1528 15.0956C46.1528 14.4963 46.3946 14.0016 46.8783 13.6113C47.3656 13.2176 47.9975 13.0208 48.7743 13.0208C49.3039 13.0208 49.7752 13.1218 50.1883 13.3239C50.6049 13.526 50.9262 13.8047 51.1522 14.1601C51.3816 14.5155 51.4964 14.904 51.4964 15.3256H50.4743C50.4743 14.8657 50.326 14.5051 50.0294 14.2437C49.7328 13.9789 49.3145 13.8465 48.7743 13.8465C48.2729 13.8465 47.881 13.9563 47.5986 14.1758C47.3197 14.3918 47.1802 14.6932 47.1802 15.08C47.1802 15.3901 47.3126 15.6531 47.5774 15.8691C47.8457 16.0817 48.2994 16.2768 48.9385 16.4545C49.581 16.6322 50.0824 16.8291 50.4425 17.0451C50.8062 17.2576 51.0745 17.5068 51.2475 17.7925C51.424 18.0782 51.5123 18.4144 51.5123 18.8012C51.5123 19.4179 51.2687 19.9127 50.7814 20.2855C50.2942 20.6548 49.6428 20.8395 48.8272 20.8395C48.2976 20.8395 47.8034 20.7402 47.3444 20.5416C46.8854 20.3395 46.5306 20.0642 46.2799 19.7158C46.0328 19.3674 45.9092 18.9719 45.9092 18.5294H46.9313C46.9313 18.9893 47.1025 19.3534 47.445 19.6217C47.791 19.8865 48.2518 20.0189 48.8272 20.0189C49.3639 20.0189 49.7752 19.9109 50.0612 19.6949C50.3472 19.4789 50.4902 19.1844 50.4902 18.8116C50.4902 18.4388 50.3578 18.1513 50.093 17.9493C49.8282 17.7437 49.348 17.5416 48.6525 17.343Z" fill="#181818"/>
<path d="M53.9961 13.7106V15.08H55.0658V15.8273H53.9961V19.3343C53.9961 19.5607 54.0437 19.7315 54.1391 19.8464C54.2344 19.9579 54.3968 20.0137 54.6263 20.0137C54.7393 20.0137 54.8946 19.9928 55.0923 19.951V20.7349C54.8346 20.8046 54.5839 20.8395 54.3403 20.8395C53.9025 20.8395 53.5724 20.7088 53.35 20.4475C53.1275 20.1862 53.0163 19.8151 53.0163 19.3343V15.8273H51.973V15.08H53.0163V13.7106H53.9961Z" fill="#181818"/>
<path d="M55.8496 17.8552C55.8496 17.3012 55.9591 16.8029 56.178 16.3604C56.4004 15.9179 56.7076 15.5765 57.0995 15.3361C57.4949 15.0956 57.9451 14.9754 58.4499 14.9754C59.2302 14.9754 59.8604 15.242 60.3406 15.7751C60.8243 16.3082 61.0661 17.0172 61.0661 17.9022V17.9702C61.0661 18.5207 60.9584 19.0154 60.7431 19.4545C60.5312 19.89 60.2258 20.2297 59.8269 20.4736C59.4314 20.7175 58.976 20.8395 58.4605 20.8395C57.6838 20.8395 57.0536 20.5729 56.5699 20.0398C56.0897 19.5067 55.8496 18.8012 55.8496 17.9231V17.8552ZM56.8347 17.9702C56.8347 18.5973 56.9812 19.1008 57.2742 19.4806C57.5708 19.8604 57.9662 20.0503 58.4605 20.0503C58.9583 20.0503 59.3538 19.8586 59.6468 19.4754C59.9399 19.0886 60.0864 18.5486 60.0864 17.8552C60.0864 17.235 59.9363 16.7332 59.6362 16.35C59.3396 15.9632 58.9442 15.7698 58.4499 15.7698C57.9662 15.7698 57.5761 15.9597 57.2795 16.3395C56.983 16.7193 56.8347 17.2629 56.8347 17.9702Z" fill="#181818"/>
<path d="M65.0645 15.9475C64.9163 15.9232 64.7556 15.911 64.5826 15.911C63.94 15.911 63.504 16.181 63.2745 16.7211V20.7349H62.2948V15.08H63.248L63.2639 15.7333C63.5852 15.228 64.0407 14.9754 64.6303 14.9754C64.8209 14.9754 64.9657 14.9998 65.0645 15.0486V15.9475Z" fill="#181818"/>
<path d="M68.2421 20.8395C67.4654 20.8395 66.8334 20.5886 66.3462 20.0869C65.8589 19.5816 65.6153 18.9074 65.6153 18.0642V17.8865C65.6153 17.3256 65.723 16.8256 65.9384 16.3866C66.1573 15.9441 66.4609 15.5991 66.8493 15.3517C67.2412 15.1009 67.6648 14.9754 68.1203 14.9754C68.8652 14.9754 69.4443 15.2176 69.8573 15.7019C70.2704 16.1862 70.477 16.8796 70.477 17.782V18.1844H66.5951C66.6092 18.7419 66.7734 19.1931 67.0876 19.5381C67.4053 19.8795 67.8078 20.0503 68.2951 20.0503C68.6411 20.0503 68.9341 19.9806 69.1742 19.8412C69.4143 19.7019 69.6243 19.5172 69.8044 19.2872L70.4028 19.7471C69.9227 20.4754 69.2024 20.8395 68.2421 20.8395ZM68.1203 15.7698C67.7249 15.7698 67.393 15.9127 67.1247 16.1984C66.8563 16.4806 66.6904 16.8778 66.6268 17.39H69.4972V17.3169C69.469 16.8256 69.3348 16.4458 69.0947 16.1775C68.8547 15.9057 68.5298 15.7698 68.1203 15.7698Z" fill="#181818"/>
</svg>
