<svg width="80" height="21" viewBox="0 0 80 21" fill="none" xmlns="http://www.w3.org/2000/svg">
<path d="M28.6364 5.19976V6.49399H28.3262V5.48876H24.2755L24.2691 6.49399H23.959L23.9653 5.19976H24.2058C24.497 5.17463 24.6995 4.9317 24.8134 4.47097C24.9316 4.01024 25.0033 3.36521 25.0286 2.5359L25.073 1.09088H27.9528V5.19976H28.6364ZM25.3261 2.56103C25.3008 3.27307 25.2438 3.85526 25.1552 4.30762C25.0708 4.75997 24.9253 5.05735 24.7185 5.19976H27.63V1.37989H25.3641L25.3261 2.56103Z" fill="#181818"/>
<path d="M30.7664 5.51389C30.4542 5.51389 30.1715 5.44269 29.9183 5.30028C29.6693 5.15788 29.4731 4.96102 29.3296 4.70971C29.1862 4.45421 29.1144 4.1673 29.1144 3.84898C29.1144 3.53066 29.1862 3.24584 29.3296 2.99454C29.4731 2.73904 29.6693 2.54009 29.9183 2.39768C30.1715 2.25527 30.4542 2.18407 30.7664 2.18407C31.0787 2.18407 31.3593 2.25527 31.6082 2.39768C31.8614 2.54009 32.0597 2.73904 32.2032 2.99454C32.3466 3.24584 32.4184 3.53066 32.4184 3.84898C32.4184 4.1673 32.3466 4.45421 32.2032 4.70971C32.0597 4.96102 31.8614 5.15788 31.6082 5.30028C31.3593 5.44269 31.0787 5.51389 30.7664 5.51389ZM30.7664 5.23117C31.0196 5.23117 31.2453 5.17253 31.4437 5.05526C31.6462 4.93798 31.8044 4.77463 31.9184 4.56521C32.0365 4.35579 32.0956 4.11704 32.0956 3.84898C32.0956 3.58092 32.0365 3.34218 31.9184 3.13276C31.8044 2.92333 31.6462 2.75998 31.4437 2.64271C31.2453 2.52543 31.0196 2.46679 30.7664 2.46679C30.5132 2.46679 30.2854 2.52543 30.0828 2.64271C29.8845 2.75998 29.7263 2.92333 29.6081 3.13276C29.4942 3.34218 29.4372 3.58092 29.4372 3.84898C29.4372 4.11704 29.4942 4.35579 29.6081 4.56521C29.7263 4.77463 29.8845 4.93798 30.0828 5.05526C30.2854 5.17253 30.5132 5.23117 30.7664 5.23117Z" fill="#181818"/>
<path d="M34.7845 5.51389C34.4638 5.51389 34.1769 5.44269 33.9237 5.30028C33.6706 5.15788 33.4722 4.96102 33.3288 4.70971C33.1853 4.45421 33.1136 4.1673 33.1136 3.84898C33.1136 3.52647 33.1853 3.23956 33.3288 2.98825C33.4722 2.73276 33.6706 2.5359 33.9237 2.39768C34.1769 2.25527 34.4638 2.18407 34.7845 2.18407C35.0504 2.18407 35.2909 2.23642 35.5061 2.34114C35.7255 2.44166 35.9027 2.59035 36.0377 2.78721L35.8035 2.95684C35.6854 2.79349 35.5377 2.67202 35.3605 2.59244C35.1875 2.50867 34.9955 2.46679 34.7845 2.46679C34.5271 2.46679 34.295 2.52543 34.0883 2.64271C33.8857 2.75579 33.7254 2.91705 33.6073 3.12647C33.4933 3.3359 33.4364 3.57673 33.4364 3.84898C33.4364 4.12123 33.4933 4.36207 33.6073 4.57149C33.7254 4.78091 33.8857 4.94426 34.0883 5.06154C34.295 5.17463 34.5271 5.23117 34.7845 5.23117C34.9955 5.23117 35.1875 5.19138 35.3605 5.1118C35.5377 5.02803 35.6854 4.90447 35.8035 4.74112L36.0377 4.91076C35.9027 5.10761 35.7255 5.2584 35.5061 5.36311C35.2909 5.46363 35.0504 5.51389 34.7845 5.51389Z" fill="#181818"/>
<path d="M39.107 2.49192H37.8158V5.48876H37.4993V2.49192H36.2081V2.2092H39.107V2.49192Z" fill="#181818"/>
<path d="M42.4807 2.2092L40.7845 5.93483C40.6579 6.22384 40.5102 6.42907 40.3414 6.55054C40.1768 6.672 39.9806 6.73274 39.7528 6.73274C39.6009 6.73274 39.4574 6.70761 39.3224 6.65734C39.1916 6.60708 39.0797 6.53378 38.9869 6.43745L39.1452 6.19871C39.3139 6.37043 39.5186 6.4563 39.7591 6.4563C39.9194 6.4563 40.0566 6.41232 40.1705 6.32436C40.2844 6.2364 40.3899 6.08562 40.487 5.87201L40.6642 5.4762L39.1768 2.2092H39.5123L40.8351 5.14322L42.1579 2.2092H42.4807Z" fill="#181818"/>
<path d="M46.1321 2.2092V5.48876H45.8157V2.49192H43.5624V5.48876H43.2459V2.2092H46.1321Z" fill="#181818"/>
<path d="M47.4985 2.2092H47.8149V3.70448H50.0555V2.2092H50.372V5.48876H50.0555V3.98092H47.8149V5.48876H47.4985V2.2092Z" fill="#181818"/>
<path d="M53.0552 5.51389C52.7429 5.51389 52.4602 5.44269 52.207 5.30028C51.9581 5.15788 51.7619 4.96102 51.6184 4.70971C51.4749 4.45421 51.4032 4.1673 51.4032 3.84898C51.4032 3.53066 51.4749 3.24584 51.6184 2.99454C51.7619 2.73904 51.9581 2.54009 52.207 2.39768C52.4602 2.25527 52.7429 2.18407 53.0552 2.18407C53.3674 2.18407 53.648 2.25527 53.897 2.39768C54.1501 2.54009 54.3485 2.73904 54.4919 2.99454C54.6354 3.24584 54.7071 3.53066 54.7071 3.84898C54.7071 4.1673 54.6354 4.45421 54.4919 4.70971C54.3485 4.96102 54.1501 5.15788 53.897 5.30028C53.648 5.44269 53.3674 5.51389 53.0552 5.51389ZM53.0552 5.23117C53.3083 5.23117 53.5341 5.17253 53.7324 5.05526C53.9349 4.93798 54.0932 4.77463 54.2071 4.56521C54.3253 4.35579 54.3843 4.11704 54.3843 3.84898C54.3843 3.58092 54.3253 3.34218 54.2071 3.13276C54.0932 2.92333 53.9349 2.75998 53.7324 2.64271C53.5341 2.52543 53.3083 2.46679 53.0552 2.46679C52.802 2.46679 52.5741 2.52543 52.3716 2.64271C52.1733 2.75998 52.015 2.92333 51.8969 3.13276C51.783 3.34218 51.726 3.58092 51.726 3.84898C51.726 4.11704 51.783 4.35579 51.8969 4.56521C52.015 4.77463 52.1733 4.93798 52.3716 5.05526C52.5741 5.17253 52.802 5.23117 53.0552 5.23117Z" fill="#181818"/>
<path d="M57.3634 2.2092H57.6798V3.70448H59.9204V2.2092H60.2369V5.48876H59.9204V3.98092H57.6798V5.48876H57.3634V2.2092Z" fill="#181818"/>
<path d="M62.6985 2.18407C63.1078 2.18407 63.4222 2.28878 63.6416 2.4982C63.861 2.70344 63.9707 3.0071 63.9707 3.40919V5.48876H63.6669V4.90447C63.5614 5.09714 63.4074 5.24793 63.2049 5.35683C63.0023 5.46154 62.7597 5.51389 62.477 5.51389C62.1099 5.51389 61.8188 5.42803 61.6036 5.2563C61.3926 5.08458 61.2871 4.8584 61.2871 4.57777C61.2871 4.30552 61.3841 4.08563 61.5782 3.91809C61.7766 3.74636 62.0909 3.6605 62.5213 3.6605H63.6543V3.39663C63.6543 3.09087 63.5699 2.85841 63.4011 2.69925C63.2365 2.54009 62.9939 2.46051 62.6732 2.46051C62.4538 2.46051 62.2428 2.4982 62.0403 2.5736C61.842 2.64899 61.6732 2.74951 61.5339 2.87517L61.3757 2.64899C61.5403 2.50239 61.7386 2.3893 61.9707 2.30972C62.2027 2.22595 62.4454 2.18407 62.6985 2.18407ZM62.5213 5.2563C62.7956 5.2563 63.0277 5.19348 63.2175 5.06782C63.4116 4.94217 63.5572 4.75997 63.6543 4.52123V3.90553H62.5276C62.2027 3.90553 61.9664 3.96416 61.8188 4.08144C61.6753 4.19872 61.6036 4.35997 61.6036 4.56521C61.6036 4.77882 61.6837 4.94845 61.8441 5.07411C62.0044 5.19557 62.2302 5.2563 62.5213 5.2563Z" fill="#181818"/>
<path d="M29.7477 16.3292C29.4932 16.6911 29.1372 16.9625 28.6797 17.1435C28.2257 17.321 27.696 17.4098 27.0907 17.4098C26.4784 17.4098 25.935 17.2681 25.4603 16.9847C24.9857 16.6979 24.6177 16.2916 24.3562 15.7658C24.0983 15.2401 23.9659 14.6306 23.959 13.9376V13.2872C23.959 12.1639 24.2221 11.2933 24.7484 10.6753C25.278 10.0574 26.021 9.74838 26.9772 9.74838C27.7614 9.74838 28.3925 9.9481 28.8706 10.3476C29.3487 10.7436 29.6411 11.3069 29.7477 12.0376H28.7571C28.5714 11.0509 27.9798 10.5575 26.9823 10.5575C26.3185 10.5575 25.8146 10.7897 25.4707 11.254C25.1301 11.7149 24.9582 12.3841 24.9547 13.2616V13.871C24.9547 14.7074 25.1473 15.3732 25.5326 15.8683C25.9178 16.3599 26.4389 16.6057 27.0958 16.6057C27.4673 16.6057 27.7923 16.5648 28.0709 16.4828C28.3495 16.4009 28.58 16.2626 28.7623 16.068V14.3933H27.0236V13.5944H29.7477V16.3292Z" fill="#181818"/>
<path d="M31.0014 14.4855C31.0014 13.9427 31.108 13.4545 31.3213 13.0209C31.538 12.5873 31.8372 12.2527 32.219 12.0171C32.6042 11.7815 33.0428 11.6637 33.5346 11.6637C34.2948 11.6637 34.9087 11.9249 35.3765 12.4473C35.8477 12.9696 36.0833 13.6644 36.0833 14.5316V14.5982C36.0833 15.1376 35.9784 15.6224 35.7686 16.0526C35.5622 16.4794 35.2647 16.8123 34.876 17.0513C34.4908 17.2903 34.0471 17.4098 33.5449 17.4098C32.7882 17.4098 32.1743 17.1486 31.7031 16.6262C31.2353 16.1038 31.0014 15.4125 31.0014 14.5521V14.4855ZM31.961 14.5982C31.961 15.2127 32.1038 15.7061 32.3893 16.0782C32.6782 16.4504 33.0634 16.6365 33.5449 16.6365C34.0299 16.6365 34.4151 16.4487 34.7006 16.0731C34.9861 15.6941 35.1288 15.1649 35.1288 14.4855C35.1288 13.8778 34.9827 13.3862 34.6903 13.0106C34.4014 12.6316 34.0162 12.4422 33.5346 12.4422C33.0634 12.4422 32.6833 12.6282 32.3944 13.0004C32.1055 13.3725 31.961 13.9051 31.961 14.5982Z" fill="#181818"/>
<path d="M37.0275 14.4855C37.0275 13.9427 37.1341 13.4545 37.3473 13.0209C37.564 12.5873 37.8633 12.2527 38.2451 12.0171C38.6303 11.7815 39.0688 11.6637 39.5607 11.6637C40.3208 11.6637 40.9348 11.9249 41.4025 12.4473C41.8738 12.9696 42.1094 13.6644 42.1094 14.5316V14.5982C42.1094 15.1376 42.0045 15.6224 41.7947 16.0526C41.5883 16.4794 41.2908 16.8123 40.9021 17.0513C40.5169 17.2903 40.0732 17.4098 39.571 17.4098C38.8143 17.4098 38.2003 17.1486 37.7291 16.6262C37.2614 16.1038 37.0275 15.4125 37.0275 14.5521V14.4855ZM37.9871 14.5982C37.9871 15.2127 38.1298 15.7061 38.4153 16.0782C38.7042 16.4504 39.0895 16.6365 39.571 16.6365C40.056 16.6365 40.4412 16.4487 40.7267 16.0731C41.0122 15.6941 41.1549 15.1649 41.1549 14.4855C41.1549 13.8778 41.0087 13.3862 40.7164 13.0106C40.4274 12.6316 40.0422 12.4422 39.5607 12.4422C39.0895 12.4422 38.7094 12.6282 38.4205 13.0004C38.1316 13.3725 37.9871 13.9051 37.9871 14.5982Z" fill="#181818"/>
<path d="M43.0793 14.4906C43.0793 13.6269 43.2805 12.9406 43.683 12.4319C44.0854 11.9198 44.6185 11.6637 45.2823 11.6637C45.9634 11.6637 46.4948 11.9027 46.8766 12.3807L46.923 11.7661H47.7949V17.1742C47.7949 17.8912 47.5799 18.4562 47.15 18.8693C46.7235 19.2824 46.1491 19.489 45.4268 19.489C45.0244 19.489 44.6305 19.4036 44.2453 19.2329C43.8601 19.0622 43.566 18.8283 43.3631 18.5313L43.8584 17.9629C44.2677 18.4647 44.7681 18.7157 45.3597 18.7157C45.8241 18.7157 46.1852 18.5859 46.4432 18.3265C46.7046 18.067 46.8353 17.7017 46.8353 17.2305V16.7542C46.4535 17.1913 45.9324 17.4098 45.272 17.4098C44.6185 17.4098 44.0888 17.1486 43.683 16.6262C43.2805 16.1038 43.0793 15.392 43.0793 14.4906ZM44.0389 14.5982C44.0389 15.223 44.1679 15.7146 44.4259 16.0731C44.6839 16.4282 45.045 16.6057 45.5093 16.6057C46.1113 16.6057 46.5532 16.3343 46.8353 15.7914V13.2616C46.5429 12.7324 46.1044 12.4678 45.5197 12.4678C45.0553 12.4678 44.6925 12.647 44.431 13.0055C44.1696 13.364 44.0389 13.8949 44.0389 14.5982Z" fill="#181818"/>
<path d="M50.2765 17.3073H49.3221V9.4411H50.2765V17.3073Z" fill="#181818"/>
<path d="M54.1254 17.4098C53.3687 17.4098 52.753 17.1639 52.2783 16.6723C51.8037 16.1772 51.5663 15.5166 51.5663 14.6904V14.5163C51.5663 13.9666 51.6713 13.4766 51.8811 13.0465C52.0943 12.6129 52.3901 12.2749 52.7685 12.0325C53.1502 11.7866 53.563 11.6637 54.0067 11.6637C54.7324 11.6637 55.2965 11.901 55.6989 12.3756C56.1014 12.8501 56.3026 13.5296 56.3026 14.4138V14.8082H52.5208C52.5346 15.3544 52.6945 15.7966 53.0006 16.1346C53.3102 16.4692 53.7023 16.6365 54.1769 16.6365C54.514 16.6365 54.7995 16.5682 55.0334 16.4316C55.2673 16.295 55.4719 16.1141 55.6473 15.8888L56.2303 16.3394C55.7626 17.053 55.0609 17.4098 54.1254 17.4098ZM54.0067 12.4422C53.6215 12.4422 53.2981 12.5821 53.0367 12.8621C52.7753 13.1386 52.6137 13.5279 52.5518 14.0297H55.3481V13.958C55.3206 13.4766 55.1899 13.1045 54.956 12.8416C54.7221 12.5753 54.4057 12.4422 54.0067 12.4422Z" fill="#181818"/>
<path d="M61.1729 14.3882V17.3073H60.1824V9.8508H62.9529C63.7749 9.8508 64.4181 10.0591 64.8825 10.4756C65.3503 10.8921 65.5841 11.4435 65.5841 12.1298C65.5841 12.8536 65.3554 13.4118 64.8979 13.8044C64.4439 14.1936 63.7921 14.3882 62.9426 14.3882H61.1729ZM61.1729 13.5842H62.9529C63.4826 13.5842 63.8885 13.4613 64.1705 13.2155C64.4525 12.9662 64.5936 12.6077 64.5936 12.14C64.5936 11.6962 64.4525 11.3411 64.1705 11.0748C63.8885 10.8085 63.5015 10.6702 63.0097 10.66H61.1729V13.5842Z" fill="#181818"/>
<path d="M67.7356 17.3073H66.7811V9.4411H67.7356V17.3073Z" fill="#181818"/>
<path d="M72.7143 17.3073C72.6592 17.1981 72.6145 17.0035 72.5801 16.7235C72.1364 17.181 71.6067 17.4098 70.9911 17.4098C70.4407 17.4098 69.9884 17.2561 69.6342 16.9488C69.2833 16.6382 69.1079 16.2455 69.1079 15.771C69.1079 15.194 69.3281 14.7467 69.7683 14.4292C70.212 14.1083 70.8346 13.9478 71.636 13.9478H72.5647V13.5125C72.5647 13.1813 72.4649 12.9184 72.2654 12.7238C72.0659 12.5258 71.7718 12.4268 71.3832 12.4268C71.0427 12.4268 70.7572 12.5121 70.5267 12.6828C70.2963 12.8536 70.1811 13.0601 70.1811 13.3025H69.2214C69.2214 13.026 69.3195 12.7597 69.5155 12.5036C69.715 12.2441 69.9833 12.0393 70.3204 11.8891C70.6609 11.7388 71.0341 11.6637 71.4399 11.6637C72.0831 11.6637 72.587 11.8242 72.9516 12.1451C73.3162 12.4626 73.5054 12.9014 73.5191 13.4613V16.0117C73.5191 16.5204 73.5845 16.9249 73.7152 17.2254V17.3073H72.7143ZM71.1304 16.5852C71.4296 16.5852 71.7134 16.5084 71.9817 16.3548C72.2499 16.2011 72.4443 16.0014 72.5647 15.7556V14.6187H71.8166C70.6471 14.6187 70.0624 14.9584 70.0624 15.6378C70.0624 15.9348 70.1621 16.167 70.3616 16.3343C70.5611 16.5016 70.8174 16.5852 71.1304 16.5852Z" fill="#181818"/>
<path d="M76.7592 15.9195L78.0593 11.7661H79.0808L76.8365 18.1626C76.4892 19.0844 75.9371 19.5453 75.1804 19.5453L74.9998 19.53L74.6438 19.4634V18.6952L74.9018 18.7157C75.2251 18.7157 75.4762 18.6508 75.6551 18.5211C75.8374 18.3913 75.987 18.154 76.1039 17.8092L76.3155 17.2459L74.324 11.7661H75.3661L76.7592 15.9195Z" fill="#181818"/>
<path d="M17.7699 9.61528L14.2069 7.55867L11.2695 10.3963L13.9549 12.9996L17.7699 10.7521C17.873 10.6938 17.9587 10.6093 18.0183 10.5071C18.0779 10.405 18.1093 10.2889 18.1093 10.1707C18.1093 10.0524 18.0779 9.93632 18.0183 9.83417C17.9587 9.73203 17.873 9.64751 17.7699 9.58925V9.61528Z" fill="#181818"/>
<path d="M13.5989 7.21157L9.67086 4.94669L1.06738 0.538429L10.7832 9.92768L13.5989 7.21157Z" fill="#181818"/>
<path d="M1.20703 20.1066L9.68886 15.438L13.3475 13.3293L10.7838 10.8562L1.20703 20.1066Z" fill="#181818"/>
<path d="M0.49394 0.920258L0.476562 19.8723L10.3054 10.3963L0.49394 0.920258Z" fill="#181818"/>
</svg>
