<svg width="24" height="24" viewBox="0 0 24 24" fill="none" xmlns="http://www.w3.org/2000/svg">
<path d="M19.9659 4.17286C18.1337 1.52114 15.23 0 11.9998 0C8.76957 0 5.8658 1.52114 4.0336 4.17286C2.2104 6.81117 1.78941 10.1513 2.90523 13.1024C3.20368 13.9082 3.6781 14.6912 4.31194 15.4249L11.3609 23.7046C11.5203 23.892 11.7539 24 11.9998 24C12.2456 24 12.4792 23.892 12.6386 23.7046L19.6856 15.4271C20.3223 14.6892 20.7961 13.9071 21.0921 13.1077C22.2101 10.1513 21.7891 6.81117 19.9659 4.17286ZM19.5206 12.52C19.2924 13.1368 18.9198 13.7466 18.4138 14.3331C18.4124 14.3345 18.411 14.3359 18.4098 14.3376L11.9998 21.8666L5.58577 14.3329C5.08004 13.7468 4.70743 13.1371 4.47694 12.5144C3.55416 10.0739 3.90437 7.31217 5.41402 5.12728C6.92841 2.93541 9.32898 1.67831 11.9998 1.67831C14.6705 1.67831 17.0708 2.93536 18.5852 5.12728C20.0952 7.31217 20.4457 10.0739 19.5206 12.52Z" fill="#8C7AA4"/>
<path d="M12.0001 4.979C9.40903 4.979 7.30078 7.08697 7.30078 9.67832C7.30078 12.2697 9.40875 14.3776 12.0001 14.3776C14.5914 14.3776 16.6994 12.2697 16.6994 9.67832C16.6994 7.08725 14.5912 4.979 12.0001 4.979ZM12.0001 12.6993C10.3343 12.6993 8.97909 11.344 8.97909 9.67827C8.97909 8.01252 10.3343 6.65727 12.0001 6.65727C13.6658 6.65727 15.0211 8.01252 15.0211 9.67827C15.0211 11.344 13.6658 12.6993 12.0001 12.6993Z" fill="#8C7AA4"/>
</svg>
