<svg width="16" height="20" viewBox="0 0 16 20" fill="none" xmlns="http://www.w3.org/2000/svg">
<path d="M13.2545 8.27351C13.0737 8.09266 12.8928 7.88922 12.712 7.73098V4.70188C12.712 2.10228 10.6097 0 8.0101 0C5.4105 0 3.30822 2.10228 3.30822 4.70188V7.64056C3.30822 7.66316 3.30822 7.68577 3.30822 7.70837C0.414752 10.308 0.166095 14.7612 2.74309 17.6547C5.32008 20.5481 9.79591 20.7968 12.6894 18.2198C15.5828 15.6428 15.8315 11.167 13.2545 8.27351ZM8.62044 14.4899C8.62044 14.829 8.34918 15.1003 8.0101 15.1003C7.67102 15.1003 7.39976 14.829 7.39976 14.4899V12.998C7.39976 12.6589 7.67102 12.3877 8.0101 12.3877C8.34918 12.3877 8.62044 12.6589 8.62044 12.998V14.4899ZM11.4687 6.84938C9.32121 5.6287 6.699 5.6287 4.55151 6.84938V4.72449C4.55151 2.82565 6.08866 1.26589 8.0101 1.26589C9.93155 1.26589 11.4687 2.80305 11.4687 4.72449V6.84938Z" fill="#D3D3D3"/>
</svg>
