<svg width="24" height="24" viewBox="0 0 24 24" fill="none" xmlns="http://www.w3.org/2000/svg">
<path d="M12.0017 12.9878C15.5882 12.9878 18.4956 10.0804 18.4956 6.49389C18.4956 2.90737 15.5882 0 12.0017 0C8.41519 0 5.50781 2.90742 5.50781 6.49394C5.51221 10.0786 8.41706 12.9834 12.0017 12.9878ZM12.0017 2.9972C13.9329 2.9972 15.4984 4.56272 15.4984 6.49394C15.4984 8.42517 13.9329 9.99068 12.0017 9.99068C10.0705 9.99068 8.50496 8.42517 8.50496 6.49394C8.50496 4.56272 10.0705 2.9972 12.0017 2.9972Z" fill="#8C7AA4"/>
<path d="M18.362 16.0649C19.0677 15.6 19.493 14.8119 19.4939 13.9668C19.5038 13.2655 19.108 12.6215 18.4779 12.3134C17.8305 11.99 17.0555 12.0628 16.4797 12.5012C13.8112 14.4467 10.1917 14.4467 7.52313 12.5012C6.94645 12.0651 6.17285 11.9924 5.52499 12.3134C4.89516 12.6214 4.4992 13.2647 4.50795 13.9658C4.50945 14.8107 4.93454 15.5986 5.63991 16.0638C6.54488 16.6657 7.53039 17.1366 8.56719 17.4626C8.74304 17.5172 8.92451 17.5678 9.1117 17.6144L6.09254 20.5667C5.30053 21.3351 5.28137 22.6001 6.04983 23.3921C6.81828 24.1841 8.08324 24.2033 8.87529 23.4348C8.89178 23.4188 8.90798 23.4026 8.9239 23.386L12.001 20.201L15.0842 23.392C15.852 24.1846 17.117 24.2047 17.9096 23.4369C18.7022 22.6692 18.7223 21.4041 17.9545 20.6115C17.9385 20.5949 17.9221 20.5787 17.9055 20.5626L14.8913 17.6134C15.0785 17.5654 15.2606 17.5145 15.4378 17.4605C16.4735 17.1358 17.458 16.6659 18.362 16.0649Z" fill="#8C7AA4"/>
</svg>
