<svg width="12" height="18" viewBox="0 0 12 18" fill="none" xmlns="http://www.w3.org/2000/svg">
<path d="M5.99933 9.74088C8.68918 9.74088 10.8698 7.56031 10.8698 4.87042C10.8698 2.18053 8.68921 0 5.99933 0C3.30944 0 1.12891 2.18057 1.12891 4.87046C1.13221 7.55894 3.31084 9.73757 5.99933 9.74088ZM5.99933 2.2479C7.44771 2.2479 8.62188 3.42204 8.62188 4.87046C8.62188 6.31887 7.44774 7.49301 5.99933 7.49301C4.55091 7.49301 3.37677 6.31887 3.37677 4.87046C3.37677 3.42204 4.55094 2.2479 5.99933 2.2479Z" fill="#8C7AA4"/>
<path d="M10.7705 12.0486C11.2998 11.7 11.6187 11.1089 11.6195 10.4751C11.6269 9.94908 11.33 9.46606 10.8574 9.23498C10.3719 8.99246 9.79067 9.04707 9.35883 9.37586C7.35739 10.835 4.64281 10.835 2.64137 9.37586C2.20886 9.04879 1.62866 8.99425 1.14276 9.23498C0.67039 9.46603 0.373421 9.94852 0.37999 10.4743C0.381114 11.108 0.699929 11.6989 1.22896 12.0478C1.90768 12.4992 2.64682 12.8524 3.42442 13.0969C3.5563 13.1378 3.69241 13.1758 3.8328 13.2108L1.56843 15.425C0.974418 16.0013 0.960053 16.95 1.53639 17.5441C2.11273 18.1381 3.06145 18.1524 3.65549 17.5761C3.66786 17.5641 3.68001 17.5519 3.69195 17.5395L5.9998 15.1507L8.31215 17.544C8.888 18.1384 9.83675 18.1535 10.4312 17.5777C11.0257 17.0018 11.0408 16.0531 10.4649 15.4586C10.4529 15.4462 10.4406 15.434 10.4282 15.4219L8.16752 13.21C8.30787 13.174 8.4445 13.1358 8.57737 13.0954C9.35412 12.8518 10.0926 12.4994 10.7705 12.0486Z" fill="#8C7AA4"/>
</svg>
