<svg width="24" height="20" viewBox="0 0 24 20" fill="none" xmlns="http://www.w3.org/2000/svg">
<path d="M22.4 3.46674H18.0267L16.5067 0.720069C16.3636 0.472412 16.0993 0.319912 15.8133 0.320068H8.21333C7.92734 0.319912 7.66302 0.472412 7.52 0.720069L5.97333 3.46674H1.6C0.716354 3.46674 0 4.18309 0 5.06673V18.0801C0 18.9637 0.716354 19.6801 1.6 19.6801H22.4C23.2836 19.6801 24 18.9637 24 18.0801V5.06673C24 4.18309 23.2836 3.46674 22.4 3.46674ZM12 16.6134C8.73047 16.6134 6.08 13.9629 6.08 10.6934C6.08 7.42387 8.73047 4.7734 12 4.7734C15.2695 4.7734 17.92 7.42387 17.92 10.6934C17.9054 13.9568 15.2634 16.5988 12 16.6134Z" fill="#8C7AA4"/>
<path d="M12.001 13.6534C13.6358 13.6534 14.961 12.3282 14.961 10.6934C14.961 9.05864 13.6358 7.7334 12.001 7.7334C10.3663 7.7334 9.04102 9.05864 9.04102 10.6934C9.04102 12.3282 10.3663 13.6534 12.001 13.6534Z" fill="#8C7AA4"/>
</svg>
