<svg width="20" height="20" viewBox="0 0 20 20" fill="none" xmlns="http://www.w3.org/2000/svg">
<path d="M15.3018 9.75037C14.0682 11.3252 12.1785 12.3225 10 12.3225C7.87402 12.3225 5.93176 11.3252 4.69816 9.75037C1.83727 11.5614 0 14.711 0 18.2018C0 19.1467 0.734908 19.8554 1.65354 19.8554H18.3202C19.2651 19.8816 20 19.0942 20 18.2018C20 14.711 18.1627 11.5351 15.3018 9.75037Z" fill="#D3D3D3"/>
<path d="M10.0006 0.144043C7.00845 0.144043 4.59375 2.58499 4.59375 5.55087C4.59375 8.54299 7.0347 10.9577 10.0006 10.9577C12.9665 10.9577 15.4074 8.56924 15.4074 5.55087C15.4074 2.53249 12.9927 0.144043 10.0006 0.144043Z" fill="#D3D3D3"/>
</svg>
