<svg width="18" height="17" viewBox="0 0 18 17" fill="none" xmlns="http://www.w3.org/2000/svg">
<path d="M8.25407 0.924608C8.51808 0.243417 9.48192 0.243418 9.74593 0.924609L11.3411 5.04023C11.4546 5.33309 11.7289 5.53244 12.0425 5.54989L16.4496 5.79514C17.1791 5.83573 17.4769 6.7524 16.9107 7.21399L13.4894 10.0028C13.2459 10.2013 13.1411 10.5238 13.2214 10.8275L14.3501 15.0947C14.5369 15.801 13.7571 16.3675 13.1431 15.9716L9.43354 13.5796C9.16957 13.4093 8.83043 13.4093 8.56646 13.5796L4.85688 15.9716C4.24289 16.3675 3.46313 15.801 3.64993 15.0947L4.77855 10.8275C4.85887 10.5238 4.75406 10.2013 4.51061 10.0028L1.08934 7.21399C0.523074 6.7524 0.820917 5.83573 1.55035 5.79514L5.95746 5.54989C6.27107 5.53244 6.54544 5.33309 6.65895 5.04023L8.25407 0.924608Z" fill="#6B3BA8"/>
</svg>
