<svg width="18" height="18" viewBox="0 0 18 18" fill="none" xmlns="http://www.w3.org/2000/svg">
<path d="M16.8207 13.7933C17.0154 13.9887 17.1614 14.2272 17.2467 14.4895C17.3321 14.7518 17.3546 15.0305 17.3122 15.3031C17.2699 15.5757 17.1639 15.8344 17.0029 16.0585C16.842 16.2825 16.6305 16.4654 16.3857 16.5925C14.9866 17.3403 13.3565 17.5314 11.8223 17.1275C7.75067 16.1025 1.89817 10.25 0.873166 6.17833C0.469269 4.64421 0.660381 3.0141 1.40817 1.615C1.53525 1.37017 1.7182 1.1587 1.94221 0.997731C2.16622 0.83676 2.42498 0.730805 2.69756 0.688446C2.97014 0.646087 3.24886 0.668514 3.51115 0.753912C3.77345 0.83931 4.01195 0.985278 4.20733 1.18L5.94483 2.91666C6.1954 3.16471 6.36494 3.48284 6.43114 3.82915C6.49734 4.17545 6.45708 4.53369 6.31567 4.85666C6.16092 5.21903 5.94119 5.55003 5.66733 5.83333C3.68067 7.82 10.1815 14.3208 12.1673 12.3333C12.4507 12.0585 12.782 11.8379 13.1448 11.6825C13.4678 11.5409 13.8261 11.5005 14.1724 11.5667C14.5188 11.6329 14.8369 11.8026 15.0848 12.0533L16.8207 13.7933Z" fill="#8C7AA4"/>
</svg>
