<svg width="20" height="20" viewBox="0 0 20 20" fill="none" xmlns="http://www.w3.org/2000/svg">
<path fill-rule="evenodd" clip-rule="evenodd" d="M12.8672 0.418204L19.5721 7.12314C19.8402 7.37498 19.9917 7.71678 19.9997 8.08733C20.008 8.46988 19.8555 8.84656 19.5811 9.12078L9.13074 19.5718C8.87894 19.8399 8.5371 19.9914 8.16654 19.9994L8.15285 19.9997L8.13662 19.9999C7.76443 19.9999 7.40024 19.8479 7.13286 19.5808L5.69585 18.1438C5.44639 17.8943 5.41905 17.4995 5.63178 17.218C6.22804 16.429 6.14155 15.2851 5.43084 14.5569C4.73708 13.8457 3.59574 13.7668 2.77569 14.3725C2.49463 14.5802 2.10334 14.5515 1.85599 14.3037L0.427922 12.8756C0.160067 12.6238 0.0083461 12.282 0.000338181 11.9114C-0.00817756 11.5291 0.144481 11.1522 0.418938 10.8777L10.8785 0.418204C11.4358 -0.139147 12.3093 -0.139655 12.8672 0.418204ZM8.92253 4.37038L9.92811 3.37764L11.1971 4.66305L10.1915 5.65579L8.92253 4.37038ZM15.3614 8.82552L14.3685 9.83147L15.6388 11.0854L16.6318 10.0794L15.3614 8.82552ZM11.3721 6.81323L12.3713 5.81397L14.2086 7.65127L13.2094 8.65053L11.3721 6.81323Z" fill="#D3D3D3"/>
</svg>
