<svg width="17" height="10" viewBox="0 0 17 10" fill="none" xmlns="http://www.w3.org/2000/svg">
<path d="M8.45648 9.45529H9.39761C9.39761 9.45529 9.68212 9.42379 9.82683 9.26726C9.96072 9.12353 9.95579 8.8538 9.95579 8.8538C9.95579 8.8538 9.93709 7.59075 10.5238 7.40469C11.1017 7.22158 11.844 8.6254 12.6305 9.16586C13.2251 9.57441 13.677 9.48483 13.677 9.48483L15.7808 9.45529C15.7808 9.45529 16.8814 9.38737 16.3596 8.52204C16.3173 8.45116 16.0554 7.88215 14.7953 6.71262C13.4762 5.48797 13.6534 5.68683 15.2423 3.56928C16.21 2.27965 16.5969 1.49209 16.4758 1.15541C16.3606 0.834481 15.6489 0.919144 15.6489 0.919144L13.2822 0.932926C13.2822 0.932926 13.107 0.909299 12.9761 0.987071C12.8491 1.06386 12.7674 1.24106 12.7674 1.24106C12.7674 1.24106 12.3923 2.23929 11.8922 3.08788C10.8379 4.87859 10.4155 4.9731 10.2433 4.86186C9.84258 4.60295 9.943 3.82031 9.943 3.26508C9.943 1.5295 10.2058 0.805932 9.4301 0.618887C9.17217 0.556867 8.98316 0.51552 8.32456 0.508629C7.47991 0.499769 6.76421 0.511582 6.3596 0.709456C6.08987 0.841372 5.88215 1.13572 6.00914 1.15246C6.16567 1.17313 6.52007 1.24795 6.7081 1.50391C6.95126 1.8337 6.9424 2.57597 6.9424 2.57597C6.9424 2.57597 7.08219 4.6187 6.61655 4.87269C6.2966 5.04694 5.85852 4.69155 4.91837 3.06623C4.43698 2.23437 4.07273 1.31391 4.07273 1.31391C4.07273 1.31391 4.00284 1.14261 3.87781 1.05106C3.72621 0.939817 3.51357 0.904377 3.51357 0.904377L1.26312 0.918159C1.26312 0.918159 0.925452 0.928004 0.801411 1.07469C0.691153 1.20562 0.792551 1.47536 0.792551 1.47536C0.792551 1.47536 2.55471 5.59724 4.5492 7.67541C6.37929 9.58032 8.45648 9.45529 8.45648 9.45529Z" fill="#8C7AA4"/>
</svg>
