<svg width="23" height="23" viewBox="0 0 23 23" fill="none" xmlns="http://www.w3.org/2000/svg">
<path fill-rule="evenodd" clip-rule="evenodd" d="M19.5528 3.83926C17.4675 1.75148 14.6942 0.6012 11.7396 0.599976C5.6515 0.599976 0.69666 5.55468 0.694211 11.6444C0.693394 13.5911 1.20194 15.4914 2.16856 17.1665L0.601562 22.89L6.4569 21.354C8.07029 22.2341 9.88666 22.6979 11.7351 22.6984H11.7398C17.8272 22.6984 22.7826 17.7433 22.7849 11.6533C22.7861 8.70187 21.6383 5.92691 19.5528 3.83926ZM11.7396 20.8331H11.7358C10.0886 20.8324 8.47299 20.3897 7.06327 19.5534L6.72818 19.3544L3.25353 20.2659L4.18097 16.8782L3.96261 16.5308C3.04361 15.0692 2.55833 13.3797 2.55915 11.6451C2.56105 6.58347 6.67948 2.46546 11.7433 2.46546C14.1954 2.46627 16.5005 3.42241 18.2337 5.1577C19.9669 6.89298 20.9209 9.19953 20.9201 11.6526C20.9179 16.7146 16.7998 20.8331 11.7396 20.8331ZM16.7753 13.9574C16.4994 13.8192 15.1424 13.1517 14.8894 13.0595C14.6366 12.9674 14.4524 12.9215 14.2686 13.1977C14.0845 13.4739 13.5557 14.0956 13.3946 14.2797C13.2336 14.4639 13.0728 14.487 12.7967 14.3488C12.5207 14.2107 11.6315 13.9191 10.5772 12.9789C9.75687 12.2471 9.20302 11.3434 9.04194 11.0672C8.88113 10.7907 9.04058 10.6558 9.16302 10.504C9.46178 10.1329 9.76095 9.74399 9.85292 9.55992C9.94502 9.37571 9.8989 9.21449 9.82979 9.07641C9.76095 8.93832 9.20901 7.57988 8.97909 7.02712C8.75488 6.48919 8.52754 6.56184 8.35803 6.55341C8.19722 6.54538 8.01315 6.54375 7.82908 6.54375C7.64514 6.54375 7.34611 6.61272 7.09306 6.88917C6.84015 7.16548 6.12726 7.83307 6.12726 9.1915C6.12726 10.5499 7.11619 11.8622 7.25414 12.0465C7.39209 12.2307 9.2003 15.0183 11.9687 16.2136C12.6272 16.4982 13.1412 16.6678 13.5421 16.7951C14.2033 17.0051 14.8048 16.9755 15.2804 16.9044C15.8107 16.8251 16.9131 16.2367 17.1433 15.5921C17.3732 14.9474 17.3732 14.3949 17.3041 14.2797C17.2353 14.1646 17.0512 14.0956 16.7753 13.9574Z" fill="#8C7AA4"/>
</svg>
